<svg id="Laag_1" data-name="Laag 1" xmlns="http://www.w3.org/2000/svg" xmlns:xlink="http://www.w3.org/1999/xlink" viewBox="0 0 95.48 71.3"><defs><style>.cls-1,.cls-2{stroke:#fff;stroke-miterlimit:10;}.cls-1{fill:url(#Naamloos_verloop_32);}.cls-2{fill:#909db2;}.cls-3{font-size:12px;fill:#fff;font-family:BritannicBold, Britannic Bold;}</style><linearGradient id="Naamloos_verloop_32" x1="14" y1="48.75" x2="97" y2="48.75" gradientUnits="userSpaceOnUse"><stop offset="0.29" stop-color="#ccc"/><stop offset="0.3" stop-color="#cecece"/><stop offset="0.43" stop-color="#e3e3e3"/><stop offset="0.58" stop-color="#f3f3f3"/><stop offset="0.75" stop-color="#fcfcfc"/><stop offset="1" stop-color="#fff"/></linearGradient></defs><title>logoProjectDrie</title><path class="cls-1" d="M82.88,40.56s-2.65-10.3-17.65-9.27a13.48,13.48,0,0,0-11-6.1s-6.24-.91-9.52,1.56a19.22,19.22,0,0,0-15.36-2S18.46,27.06,16.7,36.38c0,0,0,5.2.88,5.2,0,0-9.44,9.27,2.34,21.11,0,0,8.25,5.66,15.31,4.63,0,0,5.8,6,12.61,6.1,0,0,7.55.71,11.59-2.18,0,0,16.39,6.38,27-7,0,0,9.71-1.29,10.59-10.94C97,53.29,97,40.56,82.88,40.56Z" transform="translate(-2.02 -2.7)"/><path class="cls-2" d="M18.52,19.28s3-10,20-9A15.68,15.68,0,0,1,51,4.35s7.07-.88,10.78,1.52c0,0,7.11-4.34,17.42-2,0,0,12.3,2.27,14.3,11.32,0,0,0,5.06-1,5.06,0,0,10.69,9-2.65,20.5,0,0-9.35,5.5-17.35,4.5,0,0-6.57,5.84-14.29,5.92,0,0-8.56.69-13.14-2.12,0,0-18.57,6.2-30.57-6.8,0,0-11-1.26-12-10.63C2.52,31.65,2.52,19.28,18.52,19.28Z" transform="translate(-2.02 -2.7)"/><text class="cls-3" transform="translate(30.86 37.65) rotate(-1.84) scale(1.16 1)">C</text><text class="cls-3" transform="translate(39.12 37.39) rotate(-0.68) scale(1.16 1)">o</text><text class="cls-3" transform="matrix(1.16, 0, 0, 1, 46.6, 37.31)">l</text><text class="cls-3" transform="matrix(1.16, 0, 0, 1, 50.41, 37.31)">i</text><text class="cls-3" transform="matrix(1.16, -0.01, 0, 1, 54.29, 37.31)">c</text><text class="cls-3" transform="matrix(1.16, -0.01, 0.01, 1, 61.05, 37.27)">s</text><text class="cls-3" transform="translate(67.61 37.2) rotate(-1.47) scale(1.16 1)">s</text></svg>